<?xml version="1.0" standalone="no"?>
<!DOCTYPE svg PUBLIC "-//W3C//DTD SVG 20010904//EN"
 "https://www.w3.org/TR/2001/REC-SVG-20010904/DTD/svg10.dtd">
<svg version="1.0" xmlns="https://www.w3.org/2000/svg"
 width="720.000000pt" height="720.000000pt" viewBox="0 0 720.000000 720.000000"
 preserveAspectRatio="xMidYMid meet">
<metadata>
Created by potrace 1.14, written by Peter Selinger 2001-2017
</metadata>
<g transform="translate(0.000000,720.000000) scale(0.100000,-0.100000)"
fill="#000000" stroke="none">
<path d="M5678 7195 c-2 -1 -66 -5 -143 -9 -234 -10 -297 -23 -391 -84 -127
-82 -136 -95 -224 -307 -23 -55 -50 -119 -61 -142 -10 -24 -19 -46 -19 -49 0
-3 -7 -20 -15 -37 -18 -40 -206 -498 -209 -512 -2 -5 -8 -21 -13 -35 -29 -68
-519 -1293 -538 -1345 -12 -33 -104 -267 -204 -520 -172 -434 -312 -790 -396
-1005 -20 -52 -61 -156 -90 -230 -29 -74 -92 -236 -139 -360 -48 -124 -94
-239 -102 -257 -7 -17 -14 -36 -14 -42 0 -6 -4 -19 -10 -29 -5 -9 -46 -111
-90 -227 -44 -115 -84 -219 -89 -230 -5 -11 -19 -47 -31 -80 -11 -33 -25 -69
-30 -80 -5 -11 -64 -164 -130 -340 -66 -176 -125 -329 -131 -340 -5 -12 -11
-27 -12 -35 -6 -38 -80 -211 -86 -201 -8 12 9 153 35 291 9 47 18 94 20 105 8
44 45 241 49 260 2 11 7 34 10 50 3 17 8 41 11 55 2 14 9 48 14 75 6 28 12 59
14 70 2 11 25 126 51 255 26 129 49 246 51 260 2 14 9 47 14 73 11 53 23 26
-168 387 -64 122 -139 263 -187 355 -177 336 -190 359 -253 453 -103 155 -209
226 -383 259 -85 16 -165 18 -799 18 -676 0 -966 -7 -981 -23 -4 -4 12 -45 35
-92 50 -102 257 -504 332 -647 134 -255 166 -317 234 -448 121 -234 191 -367
225 -430 40 -75 143 -271 305 -580 34 -66 85 -163 113 -215 117 -222 147 -281
202 -385 70 -133 143 -272 200 -380 48 -91 164 -311 210 -400 l31 -60 1141 -3
1141 -2 92 217 c51 120 98 232 105 248 8 17 57 134 110 260 93 221 163 386
190 450 40 92 381 899 400 945 27 67 211 503 230 545 28 62 1147 2713 1285
3045 29 69 60 143 70 165 10 22 34 81 54 130 21 50 46 109 57 132 10 24 19 45
19 47 0 2 10 25 22 52 12 27 22 51 23 54 0 6 120 291 140 335 17 37 181 432
207 498 21 55 22 55 -67 63 -60 5 -1431 14 -1437 9z"/>
</g>
</svg>
